<svg width="114" height="41" viewBox="0 0 114 41" fill="#BA967D" xmlns="http://www.w3.org/2000/svg">
<path d="M105.254 9.16113C102.181 9.16113 100.225 10.2788 99.0513 11.3406V9.66408H94.6924V31.6822H99.1072V19.2202C99.1072 18.9966 99.163 13.2965 105.143 13.2965C106.987 13.2965 108.272 14.023 109.054 15.476C109.669 16.6495 109.669 17.8231 109.669 17.8231V31.6822H113.916V17.376C113.972 17.2642 113.637 9.16113 105.254 9.16113Z"/>
<path d="M78.1508 9.16113C71.333 9.16113 66.3594 14.023 66.3594 20.729C66.3594 27.7703 72.4507 32.5204 78.1508 32.5204C83.6832 32.5204 89.6628 27.9938 89.6628 20.729C89.6628 12.7936 83.6832 9.16113 78.1508 9.16113ZM85.4715 20.8408C85.4715 25.5909 81.2802 28.1615 78.2625 28.1615C75.2448 28.1615 70.7183 26.2056 70.7183 20.729C70.7183 15.3083 75.1331 13.2965 78.1508 13.2965C82.6773 13.3524 85.4715 17.2083 85.4715 20.8408Z"/>
<path d="M60.3243 27.8818V0.275391H53.5065V4.24311H55.9654V27.8818H53.3389V31.9054H62.5596V27.8818H60.3243Z"/>
<path d="M39.5352 13.3527C43.6706 13.3527 45.3471 16.0351 45.7383 16.8733L46.0736 17.5998L49.9295 15.6998L49.5383 14.9733C49.4266 14.7497 46.4648 9.21729 39.8705 9.21729C33.0527 9.21729 28.0791 14.0791 28.0791 20.7852C28.0791 27.3794 33.0527 32.353 39.7029 32.353C45.9618 32.353 49.2589 27.7147 49.5942 26.4294L49.7619 25.8147L46.2412 23.8587L45.9059 24.5852C45.85 24.7529 44.1176 28.1618 39.7587 28.1618C35.2881 28.1618 32.2704 24.3058 32.2704 20.7293C32.2145 17.1527 35.1763 13.3527 39.5352 13.3527Z"/>
<path d="M19.3058 12.1793C17.9646 10.7822 15.6175 9.16162 12.041 9.16162C5.50261 9.16162 0.361328 14.247 0.361328 20.7854C0.361328 27.7149 6.34086 32.3532 11.9292 32.3532C15.394 32.3532 17.9087 30.6767 19.3058 29.2797V31.8503H23.6088V9.72046H19.3058V12.1793ZM19.3058 20.7854C19.3058 25.0325 16.1205 28.162 11.7616 28.162C7.12323 28.162 4.66436 23.9148 4.66436 20.7854C4.66436 17.6559 7.17911 13.3529 11.9292 13.3529C17.3499 13.3529 19.3058 17.7677 19.3058 20.7854Z"/>
<path d="M4.4964 39.5615L3.71402 38.5556L4.4964 37.6614H4.77581C4.77581 37.6614 4.83169 37.6614 4.83169 37.6055V37.2702C4.83169 37.2702 4.8317 37.2144 4.77581 37.2144H3.76991C3.76991 37.2144 3.71402 37.2144 3.71402 37.2702V37.6055C3.71402 37.6055 3.71403 37.6614 3.76991 37.6614H3.99344L3.26696 38.4997V37.6614H3.54638C3.54638 37.6614 3.60226 37.6614 3.60226 37.6055V37.2702C3.60226 37.2702 3.60226 37.2144 3.54638 37.2144H2.48459C2.48459 37.2144 2.42871 37.2144 2.42871 37.2702V37.6055C2.42871 37.6055 2.42871 37.6614 2.48459 37.6614H2.76401V39.5615H2.48459C2.48459 39.5615 2.42871 39.5615 2.42871 39.6173V39.9526C2.42871 39.9526 2.42871 40.0085 2.48459 40.0085H3.49049C3.49049 40.0085 3.54638 40.0085 3.54638 39.9526V39.6173C3.54638 39.6173 3.54638 39.5615 3.49049 39.5615H3.21108V38.6114L3.93756 39.5615H3.71402C3.71402 39.5615 3.65814 39.5615 3.65814 39.6173V39.9526C3.65814 39.9526 3.65814 40.0085 3.71402 40.0085H4.77581C4.77581 40.0085 4.83169 40.0085 4.83169 39.9526V39.6173C4.83169 39.6173 4.8317 39.5615 4.77581 39.5615H4.4964Z"/>
<path d="M7.73781 37.3823C7.57016 37.3264 7.34662 37.2705 7.12309 37.2705H6.17307C6.17307 37.2705 6.11719 37.2705 6.11719 37.3264V37.6617C6.11719 37.6617 6.11719 37.7176 6.17307 37.7176H6.45249V39.6176H6.17307C6.17307 39.6176 6.11719 39.6176 6.11719 39.6735V40.0088C6.11719 40.0088 6.11719 40.0647 6.17307 40.0647H7.23486C7.23486 40.0647 7.29074 40.0647 7.29074 40.0088V39.6735C7.29074 39.6735 7.29074 39.6176 7.23486 39.6176H6.95544V39.0029H7.23486C7.57016 39.0029 7.84958 38.947 8.01723 38.7794C8.18488 38.6117 8.24076 38.4441 8.24076 38.1646C8.24076 37.9411 8.18488 37.8293 8.12899 37.6617C8.01723 37.5499 7.90546 37.4382 7.73781 37.3823ZM7.68193 38.3882C7.62604 38.4441 7.57016 38.4999 7.51427 38.4999C7.40251 38.5558 7.29074 38.5558 7.12309 38.5558H6.89956V37.6617H7.12309C7.34662 37.6617 7.51428 37.7176 7.57016 37.7735C7.68193 37.8293 7.68193 37.9411 7.68193 38.1088C7.73781 38.2764 7.68193 38.3323 7.68193 38.3882Z"/>
<path d="M11.7606 39.5619L11.09 37.6619H11.3695C11.3695 37.6619 11.4253 37.6619 11.4253 37.606V37.2707C11.4253 37.2707 11.4253 37.2148 11.3695 37.2148H10.0282C10.0282 37.2148 9.97237 37.2148 9.97237 37.2707V37.606C9.97237 37.606 9.97236 37.6619 10.0282 37.6619H10.3077L9.63706 39.5619H9.35764C9.35764 39.5619 9.30176 39.5619 9.30176 39.6178V39.9531C9.30176 39.9531 9.30176 40.009 9.35764 40.009H10.4194C10.4194 40.009 10.4753 40.009 10.4753 39.9531V39.6178C10.4753 39.6178 10.4753 39.5619 10.4194 39.5619H10.14L10.3077 39.059H11.2018L11.3695 39.5619H11.09C11.09 39.5619 11.0341 39.5619 11.0341 39.6178V39.9531C11.0341 39.9531 11.0342 40.009 11.09 40.009H12.0959C12.0959 40.009 12.1518 40.009 12.1518 39.9531V39.6178C12.1518 39.6178 12.1518 39.5619 12.0959 39.5619H11.7606ZM10.643 37.7737L10.9783 38.7237H10.3635L10.643 37.7737Z"/>
<path d="M15.6166 38.8352C15.5608 38.8352 15.5608 38.8352 15.5608 38.8352C15.5049 39.0587 15.3931 39.2264 15.2255 39.3382C15.0578 39.4499 14.8902 39.5058 14.7225 39.5058C14.5549 39.5058 14.3872 39.4499 14.2754 39.394C14.1637 39.2823 14.0519 39.1705 13.9401 39.0587C13.8842 38.8911 13.8284 38.7234 13.8284 38.5558C13.8284 38.3881 13.8842 38.2205 13.9401 38.1087C13.996 37.9411 14.1078 37.8293 14.2195 37.7734C14.3313 37.6616 14.499 37.6616 14.6666 37.6616C14.8343 37.6616 15.0019 37.7175 15.1137 37.7734C15.2813 37.8852 15.3931 37.9969 15.449 38.1646C15.449 38.1646 15.449 38.1646 15.5049 38.1646H15.8402C15.8402 38.1646 15.8961 38.1646 15.8961 38.1087V37.2705C15.8961 37.2705 15.8961 37.2146 15.8402 37.2146H15.5049C15.5049 37.2146 15.449 37.2146 15.449 37.2705V37.494C15.3372 37.4381 15.2255 37.3263 15.1137 37.2705C14.946 37.2146 14.7784 37.1587 14.6107 37.1587C14.3313 37.1587 14.1078 37.2146 13.9401 37.3263C13.7166 37.4381 13.6048 37.6058 13.4372 37.8293C13.3254 38.0528 13.2695 38.2764 13.2695 38.5558C13.2695 38.7793 13.3254 39.0587 13.4372 39.2264C13.549 39.4499 13.7166 39.6176 13.8843 39.7293C14.1078 39.8411 14.3313 39.897 14.5549 39.897C14.8902 39.897 15.1696 39.8411 15.3931 39.6734C15.6166 39.5058 15.7843 39.2823 15.8961 39.0028V38.947L15.6166 38.8352Z"/>
<path d="M19.6411 37.4382C19.4176 37.3264 19.1941 37.2705 18.9147 37.2705C18.6352 37.2705 18.4117 37.3264 18.1882 37.4382C17.9646 37.5499 17.797 37.7176 17.6852 37.9411C17.5735 38.1646 17.5176 38.3882 17.5176 38.6676C17.5176 38.947 17.5735 39.1705 17.6852 39.3941C17.797 39.6176 17.9646 39.7853 18.1882 39.897C18.4117 40.0088 18.6352 40.0647 18.9147 40.0647C19.1941 40.0647 19.4176 40.0088 19.6411 39.897C19.8647 39.7853 20.0323 39.6176 20.1441 39.3941C20.2559 39.1705 20.3118 38.947 20.3118 38.6676C20.3118 38.3882 20.2559 38.1646 20.1441 37.9411C20.0323 37.7176 19.8647 37.5499 19.6411 37.4382ZM18.9147 39.6176C18.747 39.6176 18.5794 39.5617 18.4676 39.5058C18.3558 39.45 18.2441 39.2823 18.1882 39.1705C18.1323 39.0029 18.0764 38.8352 18.0764 38.6676C18.0764 38.4999 18.1323 38.3323 18.1882 38.1646C18.2441 37.997 18.3558 37.8852 18.4676 37.8293C18.5794 37.7735 18.747 37.7176 18.9147 37.7176C19.0823 37.7176 19.25 37.7735 19.3617 37.8293C19.4735 37.9411 19.5853 38.0529 19.697 38.1646C19.7529 38.3323 19.8088 38.4999 19.8088 38.6676C19.8088 38.8352 19.7529 39.0029 19.697 39.1705C19.6411 39.3382 19.5294 39.45 19.3617 39.5058C19.25 39.5617 19.0823 39.6176 18.9147 39.6176Z"/>
<path d="M21.8205 37.2705C21.8205 37.2705 21.7647 37.3264 21.8205 37.2705L21.7646 38.2764C21.7646 38.2764 21.7647 38.3323 21.8205 38.3323H22.1558C22.1558 38.3323 22.2117 38.3323 22.2117 38.2764V37.6617H22.6588V39.5617H22.3794C22.3794 39.5617 22.3235 39.5617 22.3235 39.6176V39.9529C22.3235 39.9529 22.3235 40.0088 22.3794 40.0088H23.4412C23.4412 40.0088 23.497 40.0088 23.497 39.9529V39.6176C23.497 39.6176 23.497 39.5617 23.4412 39.5617H23.1617V37.6617H23.6088V38.2764C23.6088 38.2764 23.6088 38.3323 23.6647 38.3323H24C24 38.3323 24.0559 38.3323 24.0559 38.2764V37.3264C24.0559 37.3264 24.0559 37.2705 24 37.2705H21.8205Z"/>
<path d="M27.6319 39.5619L26.9613 37.6619H27.2408C27.2408 37.6619 27.2966 37.6619 27.2966 37.606V37.2707C27.2966 37.2707 27.2966 37.2148 27.2408 37.2148H25.8437C25.8437 37.2148 25.7878 37.2148 25.7878 37.2707V37.606C25.7878 37.606 25.7878 37.6619 25.8437 37.6619H26.1231L25.4525 39.5619H25.1731C25.1731 39.5619 25.1172 39.5619 25.1172 39.6178V39.9531C25.1172 39.9531 25.1172 40.009 25.1731 40.009H26.2349C26.2349 40.009 26.2907 40.009 26.2907 39.9531V39.6178C26.2907 39.6178 26.2907 39.5619 26.2349 39.5619H25.9554L26.1231 39.059H27.0172L27.1849 39.5619H26.9055C26.9055 39.5619 26.8496 39.5619 26.8496 39.6178V39.9531C26.8496 39.9531 26.8496 40.009 26.9055 40.009H27.9114C27.9114 40.009 27.9672 40.009 27.9672 39.9531V39.6178C27.9672 39.6178 27.9672 39.5619 27.9114 39.5619H27.6319ZM26.5143 37.7737L26.8496 38.7237H26.2349L26.5143 37.7737Z"/>
<path d="M29.6994 39.2266C29.6994 39.2266 29.6435 39.2824 29.6994 39.2266L29.6436 39.8972C29.6436 39.8972 29.6435 39.953 29.6994 39.953H29.9789C29.9789 40.1766 29.8671 40.2883 29.6994 40.3442C29.6994 40.3442 29.6436 40.3442 29.6436 40.4001V40.6795C29.6436 40.6795 29.6436 40.6795 29.6436 40.7354C29.8112 40.7354 29.9789 40.6795 30.0906 40.6236C30.2024 40.5678 30.2583 40.456 30.3142 40.3442C30.37 40.2325 30.37 40.0648 30.37 39.8972V39.2824C30.37 39.2824 30.37 39.2266 30.3142 39.2266H29.6994Z"/>
<path d="M37.6349 38.556C37.7467 38.5002 37.8026 38.4443 37.8585 38.3325C37.9143 38.2207 37.9702 38.109 37.9702 37.9972C37.9702 37.8296 37.9143 37.7178 37.8585 37.606C37.8026 37.4943 37.6908 37.3825 37.5232 37.3266C37.4114 37.2707 37.2438 37.2148 37.0761 37.2148C36.9643 37.2148 36.8526 37.2148 36.7408 37.2707C36.6849 37.2707 36.5731 37.3266 36.5173 37.3825V37.3266C36.5173 37.3266 36.5173 37.2707 36.4614 37.2707H36.1261C36.1261 37.2707 36.0702 37.2707 36.0702 37.3266V38.109C36.0702 38.109 36.0702 38.1649 36.1261 38.1649H36.4614C36.4614 38.1649 36.5173 38.1649 36.5173 38.109V37.9413C36.629 37.7737 36.7967 37.6619 37.0202 37.6619C37.132 37.6619 37.2438 37.7178 37.3555 37.7737C37.4114 37.8296 37.4673 37.9413 37.4673 38.0531C37.4673 38.109 37.4673 38.2207 37.4114 38.2766C37.3555 38.3325 37.3555 38.3884 37.2437 38.3884C37.1879 38.4443 37.0202 38.4443 36.8526 38.4443H36.7408C36.7408 38.4443 36.6849 38.4443 36.6849 38.5002V38.8355C36.6849 38.8355 36.6849 38.8913 36.7408 38.8913H36.9084C37.132 38.8913 37.2996 38.9472 37.4114 39.0031C37.5232 39.059 37.5232 39.1708 37.5232 39.2825C37.5232 39.3943 37.4673 39.5061 37.4114 39.6178C37.2996 39.6737 37.1879 39.7296 37.0202 39.7296C36.6849 39.7296 36.4614 39.5619 36.4055 39.1708C36.4055 39.1708 36.4055 39.1708 36.4055 39.1149C36.4055 39.1149 36.4055 39.1149 36.3496 39.1149L35.9584 39.2267C35.9584 39.2267 35.9025 39.2266 35.9584 39.2825C35.9584 39.5619 36.0702 39.7855 36.2937 39.8973C36.4614 40.0649 36.7408 40.1208 37.0202 40.1208C37.1879 40.1208 37.3555 40.0649 37.5232 40.009C37.6908 39.9531 37.8026 39.8414 37.8585 39.7296C37.9702 39.6178 37.9702 39.4502 37.9702 39.2825C37.9702 39.1149 37.9143 38.9472 37.8585 38.8355C37.8026 38.6678 37.7467 38.6119 37.6349 38.556Z"/>
<path d="M41.8261 39.5617L41.1554 37.6617H41.4349C41.4349 37.6617 41.4908 37.6617 41.4908 37.6058V37.3264C41.4908 37.3264 41.4907 37.2705 41.4349 37.2705H40.0937C40.0937 37.2705 40.0378 37.2705 40.0378 37.3264V37.6058C40.0378 37.6058 40.0378 37.6617 40.0937 37.6617H40.3731L39.7025 39.5617H39.4231C39.4231 39.5617 39.3672 39.5617 39.3672 39.6176V40.5676C39.3672 40.5676 39.3672 40.6235 39.4231 40.6235H39.7584C39.7584 40.6235 39.8142 40.6235 39.8142 40.5676V39.9529H41.7702V40.5676C41.7702 40.5676 41.7702 40.6235 41.8261 40.6235H42.1614C42.1614 40.6235 42.2172 40.6235 42.2172 40.5676V39.6176C42.2172 39.6176 42.2172 39.5617 42.1614 39.5617H41.8261ZM41.3231 39.5617H40.1496L40.7643 37.6617L41.3231 39.5617Z"/>
<path d="M45.5142 37.4382C45.2907 37.3264 45.0671 37.2705 44.7877 37.2705C44.5083 37.2705 44.2848 37.3264 44.0612 37.4382C43.8377 37.5499 43.6701 37.7176 43.5583 37.9411C43.4465 38.1646 43.3906 38.3882 43.3906 38.6676C43.3906 38.947 43.4465 39.1705 43.5583 39.3941C43.6701 39.6176 43.8377 39.7853 44.0612 39.897C44.2848 40.0088 44.5083 40.0647 44.7877 40.0647C45.0671 40.0647 45.2907 40.0088 45.5142 39.897C45.7377 39.7853 45.9054 39.6176 46.0172 39.3941C46.1289 39.1705 46.1848 38.947 46.1848 38.6676C46.1848 38.3882 46.1289 38.1646 46.0172 37.9411C45.9054 37.7176 45.7377 37.5499 45.5142 37.4382ZM44.8436 39.6176C44.6759 39.6176 44.5083 39.5617 44.3965 39.5058C44.2848 39.45 44.173 39.2823 44.1171 39.1705C44.0612 39.0029 44.0053 38.8352 44.0053 38.6676C44.0053 38.4999 44.0612 38.3323 44.1171 38.1646C44.173 37.997 44.2848 37.8852 44.3965 37.8293C44.5083 37.7735 44.6759 37.7176 44.8436 37.7176C45.0112 37.7176 45.1789 37.7735 45.2907 37.8293C45.4024 37.9411 45.5142 38.0529 45.626 38.1646C45.6818 38.3323 45.7377 38.4999 45.7377 38.6676C45.7377 38.8352 45.6818 39.0029 45.626 39.1705C45.5701 39.3382 45.4583 39.45 45.2907 39.5058C45.123 39.5617 45.0112 39.6176 44.8436 39.6176Z"/>
<path d="M49.315 37.3823C49.1473 37.3264 48.9238 37.2705 48.7002 37.2705H47.7502C47.7502 37.2705 47.6943 37.2705 47.6943 37.3264V37.6617C47.6943 37.6617 47.6943 37.7176 47.7502 37.7176H48.0296V39.6176H47.7502C47.7502 39.6176 47.6943 39.6176 47.6943 39.6735V40.0088C47.6943 40.0088 47.6943 40.0647 47.7502 40.0647H48.812C48.812 40.0647 48.8679 40.0647 48.8679 40.0088V39.6735C48.8679 39.6735 48.8679 39.6176 48.812 39.6176H48.5326V39.0029H48.812C49.1473 39.0029 49.4267 38.947 49.5944 38.7794C49.762 38.6117 49.8179 38.4441 49.8179 38.1646C49.8179 37.9411 49.762 37.8293 49.7061 37.6617C49.5944 37.5499 49.4826 37.4382 49.315 37.3823ZM49.2032 38.3882C49.1473 38.4441 49.0914 38.4999 49.0355 38.4999C48.9238 38.5558 48.812 38.5558 48.6443 38.5558H48.4208V37.6617H48.6443C48.8679 37.6617 49.0355 37.7176 49.0914 37.7735C49.2032 37.8293 49.2032 37.9411 49.2032 38.1088C49.2591 38.2764 49.2591 38.3323 49.2032 38.3882Z"/>
<path d="M53.3384 37.4382C53.1149 37.3264 52.8913 37.2705 52.6119 37.2705C52.3325 37.2705 52.109 37.3264 51.8855 37.4382C51.6619 37.5499 51.4943 37.7176 51.3825 37.9411C51.2707 38.1646 51.2148 38.3882 51.2148 38.6676C51.2148 38.947 51.2707 39.1705 51.3825 39.3941C51.4943 39.6176 51.6619 39.7853 51.8855 39.897C52.109 40.0088 52.3325 40.0647 52.6119 40.0647C52.8913 40.0647 53.1149 40.0088 53.3384 39.897C53.562 39.7853 53.7296 39.6176 53.8414 39.3941C53.9531 39.1705 54.009 38.947 54.009 38.6676C54.009 38.3882 53.9531 38.1646 53.8414 37.9411C53.7296 37.7176 53.562 37.5499 53.3384 37.4382ZM52.6119 39.6176C52.4443 39.6176 52.2766 39.5617 52.1649 39.5058C52.0531 39.45 51.9413 39.2823 51.8855 39.1705C51.8296 39.0029 51.7737 38.8352 51.7737 38.6676C51.7737 38.4999 51.8296 38.3323 51.8855 38.1646C51.9413 37.997 52.0531 37.8852 52.1649 37.8293C52.2766 37.7735 52.4443 37.7176 52.6119 37.7176C52.7796 37.7176 52.9472 37.7735 53.059 37.8293C53.1708 37.9411 53.2825 38.0529 53.3943 38.1646C53.4502 38.3323 53.5061 38.4999 53.5061 38.6676C53.5061 38.8352 53.4502 39.0029 53.3943 39.1705C53.3384 39.3382 53.2267 39.45 53.059 39.5058C52.9472 39.5617 52.7796 39.6176 52.6119 39.6176Z"/>
<path d="M57.1382 38.5556C57.1941 38.4997 57.25 38.4438 57.3058 38.388C57.3617 38.2762 57.4176 38.1644 57.4176 38.0527C57.4176 37.8291 57.3058 37.6056 57.1941 37.4938C57.0264 37.3821 56.8029 37.3262 56.4676 37.3262H55.5735C55.5735 37.3262 55.5176 37.3262 55.5176 37.3821V37.7174C55.5176 37.7174 55.5176 37.7732 55.5735 37.7732H55.8529V39.6733H55.5735C55.5735 39.6733 55.5176 39.6733 55.5176 39.7292V40.0645C55.5176 40.0645 55.5176 40.1203 55.5735 40.1203H56.4676C56.8588 40.1203 57.1382 40.0645 57.3058 39.8968C57.4735 39.785 57.5853 39.5615 57.5853 39.2821C57.5853 39.1144 57.5294 39.0027 57.4735 38.8909C57.3617 38.6674 57.25 38.6115 57.1382 38.5556ZM56.4676 38.388H56.2441V37.7174H56.4676C56.6352 37.7174 56.747 37.7732 56.8029 37.8291C56.8588 37.885 56.9147 37.9409 56.9147 38.0527C56.9147 38.2762 56.8029 38.388 56.4676 38.388ZM56.2441 38.7791H56.4676C56.6911 38.7791 56.8029 38.835 56.9147 38.8909C57.0264 38.9468 57.0264 39.0586 57.0264 39.1703C57.0264 39.2821 57.0264 39.3939 56.9706 39.4497C56.9147 39.5056 56.8588 39.5615 56.747 39.5615C56.6352 39.5615 56.5235 39.6174 56.3558 39.6174H56.2441V38.7791Z"/>
<path d="M60.7711 38.5556C60.6035 38.4438 60.2682 38.388 59.877 38.388H59.7093V37.7732H59.9888C59.9888 37.7732 60.0446 37.7732 60.0446 37.7174V37.3821C60.0446 37.3821 60.0446 37.3262 59.9888 37.3262H58.927C58.927 37.3262 58.8711 37.3262 58.8711 37.3821V37.7174C58.8711 37.7174 58.8711 37.7732 58.927 37.7732H59.2064V39.6733H58.927C58.927 39.6733 58.8711 39.6733 58.8711 39.7292V40.0645C58.8711 40.0645 58.8711 40.1203 58.927 40.1203H59.877C60.2682 40.1203 60.5476 40.0645 60.7152 39.8968C60.8829 39.785 60.9947 39.5615 60.9947 39.2262C61.0505 38.835 60.9388 38.6674 60.7711 38.5556ZM59.9888 39.5615H59.7093V38.7233H59.9329C60.1564 38.7233 60.3241 38.7791 60.4358 38.835C60.5476 38.8909 60.6035 39.0027 60.6035 39.1144C60.6035 39.2821 60.5476 39.3939 60.4917 39.4497C60.3241 39.5615 60.2123 39.5615 59.9888 39.5615Z"/>
<path d="M62.4475 37.2705C62.4475 37.2705 62.3916 37.3264 62.4475 37.2705L62.3916 37.6617C62.3916 37.6617 62.3916 37.7176 62.4475 37.7176H62.7269V39.6176H62.4475C62.4475 39.6176 62.3916 39.6176 62.3916 39.6735V40.0088C62.3916 40.0088 62.3916 40.0647 62.4475 40.0647H64.6269C64.6269 40.0647 64.6828 40.0647 64.6828 40.0088V39.2264C64.6828 39.2264 64.6828 39.1705 64.6269 39.1705H64.2916C64.2916 39.1705 64.2358 39.1705 64.2358 39.2264V39.6735H63.174V38.8911H64.124C64.124 38.8911 64.1799 38.8911 64.1799 38.8352V38.4999C64.1799 38.4999 64.1799 38.4441 64.124 38.4441H63.174V37.7176H64.2358V38.1088C64.2358 38.1088 64.2358 38.1646 64.2916 38.1646H64.6269C64.6269 38.1646 64.6828 38.1646 64.6828 38.1088V37.3264C64.6828 37.3264 64.6828 37.2705 64.6269 37.2705H62.4475Z"/>
<path d="M70.8304 37.2705C70.8304 37.2705 70.7745 37.3264 70.8304 37.2705L70.7745 37.6617C70.7745 37.6617 70.7745 37.7176 70.8304 37.7176H71.1098V37.8852L70.048 38.8911V37.7176H70.3274C70.3274 37.7176 70.3833 37.7176 70.3833 37.6617V37.3264C70.3833 37.3264 70.3833 37.2705 70.3274 37.2705H69.3215C69.3215 37.2705 69.2656 37.2705 69.2656 37.3264V37.6617C69.2656 37.6617 69.2656 37.7176 69.3215 37.7176H69.6009V39.6176H69.3215C69.3215 39.6176 69.2656 39.6176 69.2656 39.6735V40.0088C69.2656 40.0088 69.2656 40.0647 69.3215 40.0647H70.3274C70.3274 40.0647 70.3833 40.0647 70.3833 40.0088V39.6735C70.3833 39.6735 70.3833 39.6176 70.3274 39.6176H70.048V39.45L71.1098 38.3882V39.6176H70.8304C70.8304 39.6176 70.7745 39.6176 70.7745 39.6735V40.0088C70.7745 40.0088 70.7745 40.0647 70.8304 40.0647H71.8362C71.8362 40.0647 71.8921 40.0647 71.8921 40.0088V39.6735C71.8921 39.6735 71.8921 39.6176 71.8362 39.6176H71.5568V37.7176H71.8362C71.8362 37.7176 71.8921 37.7176 71.8921 37.6617V37.3264C71.8921 37.3264 71.8921 37.2705 71.8362 37.2705H70.8304Z"/>
<path d="M78.8768 39.5617L78.2062 37.6617H78.4857C78.4857 37.6617 78.5415 37.6617 78.5415 37.6058V37.3264C78.5415 37.3264 78.5415 37.2705 78.4857 37.2705H77.1444C77.1444 37.2705 77.0886 37.2705 77.0886 37.3264V37.6058C77.0886 37.6058 77.0886 37.6617 77.1444 37.6617H77.4239L76.7533 39.5617H76.4739C76.4739 39.5617 76.418 39.5617 76.418 39.6176V40.5676C76.418 40.5676 76.418 40.6235 76.4739 40.6235H76.8092C76.8092 40.6235 76.865 40.6235 76.865 40.5676V39.9529H78.821V40.5676C78.821 40.5676 78.821 40.6235 78.8768 40.6235H79.2121C79.2121 40.6235 79.268 40.6235 79.268 40.5676V39.6176C79.268 39.6176 79.268 39.5617 79.2121 39.5617H78.8768ZM78.3739 39.5617H77.2003L77.8151 37.6617L78.3739 39.5617Z"/>
<path d="M82.5659 37.4382C82.3424 37.3264 82.1189 37.2705 81.8395 37.2705C81.5601 37.2705 81.3365 37.3264 81.113 37.4382C80.8894 37.5499 80.7218 37.7176 80.61 37.9411C80.4983 38.1646 80.4424 38.3882 80.4424 38.6676C80.4424 38.947 80.4983 39.1705 80.61 39.3941C80.7218 39.6176 80.8894 39.7853 81.113 39.897C81.3365 40.0088 81.5601 40.0647 81.8395 40.0647C82.1189 40.0647 82.3424 40.0088 82.5659 39.897C82.7895 39.7853 82.9571 39.6176 83.0689 39.3941C83.1807 39.1705 83.2366 38.947 83.2366 38.6676C83.2366 38.3882 83.1807 38.1646 83.0689 37.9411C82.9571 37.7176 82.7895 37.5499 82.5659 37.4382ZM81.8395 39.6176C81.6718 39.6176 81.5042 39.5617 81.3924 39.5058C81.2806 39.45 81.1689 39.2823 81.113 39.1705C81.0571 39.0029 81.0012 38.8352 81.0012 38.6676C81.0012 38.4999 81.0571 38.3323 81.113 38.1646C81.1689 37.997 81.2806 37.8852 81.3924 37.8293C81.5042 37.7735 81.6718 37.7176 81.8395 37.7176C82.0071 37.7176 82.1748 37.7735 82.2865 37.8293C82.3983 37.9411 82.5101 38.0529 82.6218 38.1646C82.6777 38.3323 82.7336 38.4999 82.7336 38.6676C82.7336 38.8352 82.6777 39.0029 82.6218 39.1705C82.566 39.3382 82.4542 39.45 82.2865 39.5058C82.1748 39.5617 82.0071 39.6176 81.8395 39.6176Z"/>
<path d="M87.0365 39.5619L86.3659 37.6619H86.6453C86.6453 37.6619 86.7012 37.6619 86.7012 37.606V37.2707C86.7012 37.2707 86.7012 37.2148 86.6453 37.2148H85.3041C85.3041 37.2148 85.2482 37.2148 85.2482 37.2707V37.606C85.2482 37.606 85.2482 37.6619 85.3041 37.6619H85.5835L84.9129 39.5619H84.5217C84.5217 39.5619 84.4658 39.5619 84.4658 39.6178V39.9531C84.4658 39.9531 84.4658 40.009 84.5217 40.009H85.5835C85.5835 40.009 85.6394 40.009 85.6394 39.9531V39.6178C85.6394 39.6178 85.6394 39.5619 85.5835 39.5619H85.3041L85.9188 37.7178L86.5335 39.5619H86.2541C86.2541 39.5619 86.1982 39.5619 86.1982 39.6178V39.9531C86.1982 39.9531 86.1982 40.009 86.2541 40.009H87.26C87.26 40.009 87.3159 40.009 87.3159 39.9531V39.6178C87.3159 39.6178 87.3159 39.5619 87.26 39.5619H87.0365Z"/>
<path d="M88.7121 37.2705C88.6563 37.2705 88.6563 37.3264 88.7121 37.2705L88.6562 37.6617C88.6562 37.6617 88.6563 37.7176 88.7121 37.7176H88.9916V39.6176H88.7121C88.7121 39.6176 88.6562 39.6176 88.6562 39.6735V40.0088C88.6562 40.0088 88.6563 40.0647 88.7121 40.0647H89.7739C89.7739 40.0647 89.8298 40.0647 89.8298 40.0088V39.6735C89.8298 39.6735 89.8298 39.6176 89.7739 39.6176H89.4945V37.7176H90.2769V38.1088C90.2769 38.1088 90.2769 38.1646 90.3328 38.1646H90.6681C90.6681 38.1646 90.7239 38.1646 90.7239 38.1088V37.3264C90.7239 37.3264 90.7239 37.2705 90.6681 37.2705H88.7121Z"/>
<path d="M94.0777 37.4382C93.8541 37.3264 93.6306 37.2705 93.3512 37.2705C93.0718 37.2705 92.8482 37.3264 92.6247 37.4382C92.4012 37.5499 92.2335 37.7176 92.1218 37.9411C92.01 38.1646 91.9541 38.3882 91.9541 38.6676C91.9541 38.947 92.01 39.1705 92.1218 39.3941C92.2335 39.6176 92.4012 39.7853 92.6247 39.897C92.8482 40.0088 93.0718 40.0647 93.3512 40.0647C93.6306 40.0647 93.8541 40.0088 94.0777 39.897C94.3012 39.7853 94.4689 39.6176 94.5806 39.3941C94.6924 39.1705 94.7483 38.947 94.7483 38.6676C94.7483 38.3882 94.6924 38.1646 94.5806 37.9411C94.4689 37.7176 94.3012 37.5499 94.0777 37.4382ZM93.3512 39.6176C93.1835 39.6176 93.0159 39.5617 92.9041 39.5058C92.7924 39.45 92.6806 39.2823 92.6247 39.1705C92.5688 39.0029 92.5129 38.8352 92.5129 38.6676C92.5129 38.4999 92.5688 38.3323 92.6247 38.1646C92.6806 37.997 92.7924 37.8852 92.9041 37.8293C93.0159 37.7735 93.1835 37.7176 93.3512 37.7176C93.5188 37.7176 93.6865 37.7735 93.7983 37.8293C93.91 37.9411 94.0218 38.0529 94.1336 38.1646C94.1895 38.3323 94.2453 38.4999 94.2453 38.6676C94.2453 38.8352 94.1895 39.0029 94.1336 39.1705C94.0777 39.3382 93.9659 39.45 93.7983 39.5058C93.6865 39.5617 93.5747 39.6176 93.3512 39.6176Z"/>
<path d="M98.5477 39.5619L97.8771 37.6619H98.1565C98.1565 37.6619 98.2124 37.6619 98.2124 37.606V37.2707C98.2124 37.2707 98.2124 37.2148 98.1565 37.2148H96.8153C96.8153 37.2148 96.7595 37.2148 96.7595 37.2707V37.606C96.7595 37.606 96.7595 37.6619 96.8153 37.6619H97.0948L96.4242 39.5619H96.1447C96.1447 39.5619 96.0889 39.5619 96.0889 39.6178V39.9531C96.0889 39.9531 96.0889 40.009 96.1447 40.009H97.2065C97.2065 40.009 97.2624 40.009 97.2624 39.9531V39.6178C97.2624 39.6178 97.2624 39.5619 97.2065 39.5619H96.8153L97.4301 37.7178L98.0448 39.5619H97.7654C97.7654 39.5619 97.7095 39.5619 97.7095 39.6178V39.9531C97.7095 39.9531 97.7095 40.009 97.7654 40.009H98.7713C98.7713 40.009 98.8272 40.009 98.8272 39.9531V39.6178C98.8272 39.6178 98.8271 39.5619 98.7713 39.5619H98.5477Z"/>
<path d="M100.225 37.2705C100.169 37.2705 100.169 37.3264 100.225 37.2705L100.169 37.6617C100.169 37.6617 100.169 37.7176 100.225 37.7176H100.504V39.6176H100.225C100.225 39.6176 100.169 39.6176 100.169 39.6735V40.0088C100.169 40.0088 100.169 40.0647 100.225 40.0647H102.404C102.404 40.0647 102.46 40.0647 102.46 40.0088V39.2264C102.46 39.2264 102.46 39.1705 102.404 39.1705H102.069C102.069 39.1705 102.013 39.1705 102.013 39.2264V39.6735H100.951V38.8911H101.901C101.901 38.8911 101.957 38.8911 101.957 38.8352V38.4999C101.957 38.4999 101.957 38.4441 101.901 38.4441H100.951V37.7176H102.013V38.1088C102.013 38.1088 102.013 38.1646 102.069 38.1646H102.404C102.404 38.1646 102.46 38.1646 102.46 38.1088V37.3264C102.46 37.3264 102.46 37.2705 102.404 37.2705H100.225Z"/>
<path d="M103.913 37.2705C103.857 37.2705 103.857 37.3264 103.913 37.2705L103.857 38.2764C103.857 38.2764 103.857 38.3323 103.913 38.3323H104.249C104.249 38.3323 104.304 38.3323 104.304 38.2764V37.6617H104.752V39.5617H104.472C104.472 39.5617 104.416 39.5617 104.416 39.6176V39.9529C104.416 39.9529 104.416 40.0088 104.472 40.0088H105.534C105.534 40.0088 105.59 40.0088 105.59 39.9529V39.6176C105.59 39.6176 105.59 39.5617 105.534 39.5617H105.199V37.6617H105.646V38.2764C105.646 38.2764 105.646 38.3323 105.702 38.3323H106.037C106.037 38.3323 106.093 38.3323 106.093 38.2764V37.3264C106.093 37.3264 106.093 37.2705 106.037 37.2705H103.913Z"/>
<path d="M108.998 37.2705C108.998 37.2705 108.942 37.3264 108.998 37.2705L108.942 37.6617C108.942 37.6617 108.942 37.7176 108.998 37.7176H109.278V37.8852L108.216 38.8911V37.7176H108.495C108.495 37.7176 108.551 37.7176 108.551 37.6617V37.3264C108.551 37.3264 108.551 37.2705 108.495 37.2705H107.489C107.489 37.2705 107.434 37.2705 107.434 37.3264V37.6617C107.434 37.6617 107.434 37.7176 107.489 37.7176H107.769V39.6176H107.489C107.489 39.6176 107.434 39.6176 107.434 39.6735V40.0088C107.434 40.0088 107.434 40.0647 107.489 40.0647H108.495C108.495 40.0647 108.551 40.0647 108.551 40.0088V39.6735C108.551 39.6735 108.551 39.6176 108.495 39.6176H108.216V39.45L109.278 38.3882V39.6176H108.998C108.998 39.6176 108.942 39.6176 108.942 39.6735V40.0088C108.942 40.0088 108.942 40.0647 108.998 40.0647H110.004C110.004 40.0647 110.06 40.0647 110.06 40.0088V39.6735C110.06 39.6735 110.06 39.6176 110.004 39.6176H109.725V37.7176H110.004C110.004 37.7176 110.06 37.7176 110.06 37.6617V37.3264C110.06 37.3264 110.06 37.2705 110.004 37.2705H108.998Z"/>
<path d="M113.246 38.109H113.581C113.581 38.109 113.637 38.109 113.637 38.0531V37.2707C113.637 37.2707 113.637 37.2148 113.581 37.2148H111.402C111.402 37.2148 111.346 37.2148 111.346 37.2707V37.606C111.346 37.606 111.346 37.6619 111.402 37.6619H111.681V39.5619H111.402C111.402 39.5619 111.346 39.5619 111.346 39.6178V39.9531C111.346 39.9531 111.346 40.009 111.402 40.009H113.581C113.581 40.009 113.637 40.009 113.637 39.9531V39.1708C113.637 39.1708 113.637 39.1149 113.581 39.1149H113.246C113.246 39.1149 113.19 39.1149 113.19 39.1708V39.6178H112.128V38.8355H113.078C113.078 38.8355 113.134 38.8355 113.134 38.7796V38.4443C113.134 38.4443 113.134 38.3884 113.078 38.3884H112.128V37.6619H113.19L113.246 38.109Z"/>
</svg>
