<svg width="258" height="201" viewBox="0 0 258 201" fill="none" xmlns="http://www.w3.org/2000/svg">
<path opacity="0.4" d="M165.614 69.4777L164.821 68.868L164.82 68.8702L165.614 69.4777ZM252.014 1.47771L252.956 1.14137L252.581 0.0911727L251.577 0.578052L252.014 1.47771ZM256.014 12.6777L256.539 13.5287L257.228 13.1037L256.956 12.3414L256.014 12.6777ZM196.014 63.0777L196.786 63.7134L196.786 63.7134L196.014 63.0777ZM171.214 117.478L170.218 117.39L170.001 119.843L171.867 118.235L171.214 117.478ZM228.814 105.478L227.995 106.051L228.028 106.099L228.067 106.142L228.814 105.478ZM200.814 188.678L200.221 187.873L200.221 187.873L200.814 188.678ZM32.8141 69.4777L32.0214 68.868L32.0197 68.8702L32.8141 69.4777ZM119.214 1.47771L120.156 1.14137L119.781 0.091172L118.777 0.578052L119.214 1.47771ZM123.214 12.6777L123.739 13.5287L124.428 13.1037L124.156 12.3414L123.214 12.6777ZM63.2141 63.0777L63.986 63.7134L63.986 63.7134L63.2141 63.0777ZM38.4141 117.478L37.4179 117.39L37.2014 119.843L39.067 118.235L38.4141 117.478ZM96.0141 105.478L95.1948 106.051L95.2281 106.099L95.2667 106.142L96.0141 105.478ZM68.0141 188.678L67.4209 187.873L67.4209 187.873L68.0141 188.678ZM135.414 152.678C135.414 124.674 145.713 97.1486 166.408 70.0851L164.82 68.8702C143.915 96.2068 133.414 124.148 133.414 152.678H135.414ZM166.407 70.0874C187.632 42.4945 216.302 19.92 252.451 2.37737L251.577 0.578052C215.193 18.2355 186.263 40.9942 164.821 68.868L166.407 70.0874ZM251.072 1.81405L255.072 13.014L256.956 12.3414L252.956 1.14137L251.072 1.81405ZM255.489 11.8267C230.351 27.337 210.261 44.2054 195.242 62.442L196.786 63.7134C211.634 45.6833 231.543 28.9517 256.539 13.5287L255.489 11.8267ZM195.242 62.442C180.218 80.6862 171.84 99.0043 170.218 117.39L172.21 117.566C173.788 99.6844 181.944 81.7359 196.786 63.7134L195.242 62.442ZM171.867 118.235C187.264 104.962 200.902 98.4777 212.814 98.4777V96.4777C200.193 96.4777 186.098 103.327 170.561 116.72L171.867 118.235ZM212.814 98.4777C219.446 98.4777 224.463 101.005 227.995 106.051L229.633 104.904C225.699 99.2837 220.049 96.4777 212.814 96.4777V98.4777ZM228.067 106.142C232.123 110.706 234.214 117.107 234.214 125.478H236.214C236.214 116.781 234.038 109.85 229.561 104.813L228.067 106.142ZM234.214 125.478C234.214 136.481 231.072 147.784 224.736 159.399L226.492 160.357C232.957 148.505 236.214 136.875 236.214 125.478H234.214ZM224.736 159.399C218.402 171.012 210.229 180.498 200.221 187.873L201.407 189.483C211.665 181.924 220.026 172.21 226.492 160.357L224.736 159.399ZM200.221 187.873C190.227 195.236 180.031 198.878 169.614 198.878V200.878C180.531 200.878 191.134 197.053 201.407 189.483L200.221 187.873ZM169.614 198.878C158.127 198.878 149.656 195.042 144.016 187.48C138.335 179.862 135.414 168.316 135.414 152.678H133.414C133.414 168.506 136.36 180.56 142.412 188.676C148.506 196.846 157.635 200.878 169.614 200.878V198.878ZM2.61407 152.678C2.61407 124.674 12.9128 97.1486 33.6084 70.0851L32.0197 68.8702C11.1153 96.2068 0.614067 124.148 0.614067 152.678H2.61407ZM33.6067 70.0874C54.832 42.4945 83.5023 19.92 119.651 2.37737L118.777 0.578052C82.3925 18.2355 53.4628 40.9942 32.0214 68.868L33.6067 70.0874ZM118.272 1.81404L122.272 13.014L124.156 12.3414L120.156 1.14137L118.272 1.81404ZM122.689 11.8267C97.5515 27.337 77.4605 44.2054 62.4421 62.442L63.986 63.7134C78.8343 45.6833 98.7434 28.9517 123.739 13.5287L122.689 11.8267ZM62.4421 62.442C47.4175 80.6862 39.0402 99.0043 37.4179 117.39L39.4102 117.566C40.9879 99.6844 49.1439 81.7359 63.986 63.7134L62.4421 62.442ZM39.067 118.235C54.4639 104.962 68.102 98.4777 80.0141 98.4777V96.4777C67.3928 96.4777 53.2975 103.327 37.7611 116.72L39.067 118.235ZM80.0141 98.4777C86.6461 98.4777 91.6625 101.005 95.1948 106.051L96.8333 104.904C92.8989 99.2837 87.2487 96.4777 80.0141 96.4777V98.4777ZM95.2667 106.142C99.3234 110.706 101.414 117.107 101.414 125.478H103.414C103.414 116.781 101.238 109.85 96.7615 104.813L95.2667 106.142ZM101.414 125.478C101.414 136.481 98.2715 147.784 91.9362 159.399L93.692 160.357C100.157 148.505 103.414 136.875 103.414 125.478H101.414ZM91.9362 159.399C85.6017 171.012 77.4294 180.498 67.4209 187.873L68.6073 189.483C78.8654 181.924 87.2264 172.21 93.692 160.357L91.9362 159.399ZM67.4209 187.873C57.4275 195.236 47.2308 198.878 36.8141 198.878V200.878C47.7307 200.878 58.334 197.053 68.6073 189.483L67.4209 187.873ZM36.8141 198.878C25.3269 198.878 16.8556 195.042 11.2157 187.48C5.53476 179.862 2.61407 168.316 2.61407 152.678H0.614067C0.614067 168.506 3.56004 180.56 9.61244 188.676C15.7059 196.846 24.8346 200.878 36.8141 200.878V198.878Z" fill="#BA967D"/>
</svg>
